# xmcd
#
# Track frame offsets: 
#        150
#        16437
#        33907
#        50691
#        71897
#        87787
#        106074
#        129366
#
# Disc length: 1979 seconds
#
# Revision: 0
# Processed by: cddbd v1.5.2PL0 Copyright (c) Steve Scherf et al.
# Submitted via: ExactAudioCopy v1.0b4
#
DISCID=6207b908
DTITLE=Joey Gilmore - Joey Gilmore
DYEAR=1977
DGENRE=Blues
TTITLE0=Funky Feeling
TTITLE1=Way Down Baby
TTITLE2=It's Here
TTITLE3=Let's Boogie On Down
TTITLE4=Get All You Want
TTITLE5=Give Me Your Love
TTITLE6=Rhythm In My Bone
TTITLE7=Rhythm In My Bone (Pt. 2)
EXTD=
EXTT0=
EXTT1=
EXTT2=
EXTT3=
EXTT4=
EXTT5=
EXTT6=
EXTT7=
PLAYORDER=
